<?xml version="1.0" encoding="UTF-8" standalone="no"?>
<!-- Created with Inkscape (http://www.inkscape.org/) -->

<svg
   width="40.246284mm"
   height="40.906891mm"
   viewBox="0 0 40.246285 40.906891"
   version="1.1"
   id="svg1358"
   xmlns="http://www.w3.org/2000/svg"
   xmlns:svg="http://www.w3.org/2000/svg">
  <defs
     id="defs1355">
    <clipPath
       clipPathUnits="userSpaceOnUse"
       id="clipPath16423-8-12">
      <circle
         style="fill:#ffff00;fill-opacity:1;stroke:none;stroke-width:1.9347;stroke-linejoin:miter;stroke-dasharray:none"
         id="circle16425-9-4"
         cx="120.91837"
         cy="181.15826"
         r="20.434208" />
    </clipPath>
  </defs>
  <g
     id="layer1"
     transform="translate(-11.177321,-6.98866)">
    <g
       id="g25536-3-3"
       transform="translate(-89.99236,-153.69692)"
       style="display:inline;fill:#ffffff">
      <path
         id="path3196-0-1"
         style="fill:#ffffff;fill-opacity:1;stroke:none;stroke-width:0.721;stroke-dasharray:none"
         d="m 120.26351,160.68589 c -1.72785,0.003 -3.31974,0.44565 -4.94699,0.80667 -1.44391,0.47572 -2.57235,0.85456 -3.92275,1.54047 0.22372,-0.15439 -1.55584,0.9374 -1.96474,1.19114 -1.00437,0.74688 -1.91853,1.3956 -2.69441,2.06396 -0.56102,0.71689 -1.69823,2.30834 -2.04742,2.85151 -0.61031,1.21696 -1.7935,2.01683 -1.5627,3.32589 0.23361,1.98546 -1.73832,3.21145 -1.66346,5.05447 0.60236,1.89736 -1.34705,4.11654 0.59118,5.41104 1.13194,1.78584 -0.86315,3.86148 0.59634,5.5547 0.67993,1.13497 1.01506,2.13891 1.68931,2.98742 0.56302,1.19007 1.4603,2.66659 2.5988,3.70313 0.0403,0.0416 0.0827,0.0826 0.12351,0.12402 -0.15487,-0.95668 -0.23298,-1.92422 -0.23358,-2.89336 0.004,-2.1129 0.37624,-4.20893 1.10019,-6.19394 -0.707,-0.72726 -1.10292,-1.70135 -1.10381,-2.71559 1.2e-4,-2.15415 1.74639,-3.90041 3.90054,-3.90054 0.41103,-8e-5 0.81948,0.0648 1.21026,0.19223 0.97825,-1.01221 2.07078,-1.90742 3.25562,-2.66753 -0.80348,-1.06555 -1.23878,-2.36344 -1.24024,-3.69797 9e-5,-3.3984 2.75523,-6.15331 6.15363,-6.15311 3.39823,9e-5 6.15303,2.75492 6.15312,6.15311 -7.7e-4,0.28357 -0.0211,0.56674 -0.061,0.8475 1.34256,0.088 2.67124,0.32471 3.96151,0.7059 0.59,-0.13946 1.19416,-0.21021 1.80041,-0.21084 4.02937,1.3e-4 7.40649,3.04633 7.82071,7.05435 v 5.1e-4 c 0.54707,0.76369 0.9256,1.54124 1.34824,2.38022 0.29297,-1.97435 0.45196,-3.97017 0.0439,-5.91282 -0.0824,-1.55597 -0.71071,-3.62371 -1.30277,-4.87205 -0.37996,-0.71552 -0.83618,-2.07764 -1.46037,-2.80345 -0.3962,-0.8262 -0.82701,-1.26228 -1.28675,-2.02261 -0.74194,-0.78338 -0.66923,-0.95044 -1.38803,-1.57355 -0.82688,-1.00969 -2.09639,-1.92143 -2.98948,-2.58176 -0.98469,-0.62896 -1.8459,-1.27988 -2.99826,-1.72444 -0.6946,-0.52024 -2.73791,-1.13518 -3.90571,-1.44591 -1.49109,-0.31463 -2.4168,-0.55036 -3.95325,-0.55448 -0.21949,-5.9e-4 -1.0537,-0.0272 -1.27434,-0.0186 -0.11645,-0.004 -0.23207,-0.006 -0.34726,-0.006 z m 9.13587,3.1135 a 0.65185836,0.38424245 22.483897 0 1 0.53176,0.15503 0.65185836,0.38424245 22.483897 0 1 0.24804,0.61082 0.65185836,0.38424245 22.483897 0 1 -0.84129,-0.0527 0.65185836,0.38424245 22.483897 0 1 -0.24805,-0.61133 0.65185836,0.38424245 22.483897 0 1 0.30954,-0.10181 z m 2.56936,3.59203 a 1.9105213,1.2929475 38.821213 0 1 1.40456,0.55759 1.9105213,1.2929475 38.821213 0 1 0.678,2.20503 1.9105213,1.2929475 38.821213 0 1 -2.29909,-0.19017 1.9105213,1.2929475 38.821213 0 1 -0.67799,-2.20503 1.9105213,1.2929475 38.821213 0 1 0.89452,-0.36742 z m -23.17947,3.32228 a 0.80722779,0.92632002 32.524197 0 1 0.40721,0.11214 0.80722779,0.92632002 32.524197 0 1 0.18242,1.21543 0.80722779,0.92632002 32.524197 0 1 -1.17822,0.34675 0.80722779,0.92632002 32.524197 0 1 -0.18294,-1.21492 0.80722779,0.92632002 32.524197 0 1 0.77153,-0.4594 z m -3.72483,7.58197 a 0.80722779,0.92632002 32.524197 0 1 0.40721,0.11213 0.80722779,0.92632002 32.524197 0 1 0.18241,1.21543 0.80722779,0.92632002 32.524197 0 1 -1.17874,0.34675 0.80722779,0.92632002 32.524197 0 1 -0.18241,-1.21491 0.80722779,0.92632002 32.524197 0 1 0.77153,-0.4594 z" />
      <g
         id="g16421-5-4"
         clip-path="url(#clipPath16423-8-12)"
         style="fill:#ffffff">
        <circle
           style="fill:#ffffff;fill-opacity:1;stroke-width:3;stroke-linejoin:bevel"
           id="path422-4-0"
           cx="120.10263"
           cy="173.42368"
           r="5.3407893" />
        <circle
           style="fill:#ffffff;fill-opacity:1;stroke-width:3;stroke-linejoin:bevel"
           id="path424-40-2"
           cx="110.72369"
           cy="183.49738"
           r="3.0828948" />
        <circle
           style="fill:#ffffff;fill-opacity:1;stroke-width:3;stroke-linejoin:bevel"
           id="path426-5-32"
           cx="131.95657"
           cy="182.62895"
           r="6.9929247" />
        <path
           style="color:#000000;fill:#ffffff;fill-opacity:1;-inkscape-stroke:none"
           d="m 111.06836,182.55859 -0.68945,1.87696 4.90234,1.80078 v 15.77915 h 2 v -17.17564 z"
           id="path7396-2-7" />
        <path
           style="color:#000000;fill:#ffffff;fill-opacity:1;-inkscape-stroke:none"
           d="m 129.29687,182.375 -6.21289,2.28125 v 17.27571 h 2 v -15.87923 l 4.90235,-1.80078 z"
           id="path7396-3-5-4" />
        <rect
           style="fill:#ffffff;fill-opacity:1;stroke:none;stroke-width:8.40538;stroke-linejoin:miter;stroke-dasharray:none"
           id="rect16123-1-9"
           width="2"
           height="25.85269"
           x="118.98936"
           y="176.16512" />
      </g>
      <ellipse
         style="fill:#ffffff;fill-opacity:1;stroke:none;stroke-width:2;stroke-linejoin:miter;stroke-dasharray:none"
         id="path21421-7-3"
         cx="231.7774"
         cy="25.270733"
         rx="1.2869231"
         ry="1.6837981"
         transform="rotate(50.199117)" />
      <ellipse
         style="fill:#ffffff;fill-opacity:1;stroke:none;stroke-width:2;stroke-linejoin:miter;stroke-dasharray:none"
         id="path21423-35-0"
         cx="-98.172226"
         cy="199.68404"
         rx="0.7918027"
         ry="1.1225319"
         transform="rotate(-55.865605)" />
      <path
         style="display:none;fill:#ffffff;fill-opacity:1;stroke:#231f20;stroke-width:0.708;stroke-dasharray:none"
         d="m 121.18317,201.60099 c 3.5043,-0.1911 6.93226,-1.15651 9.9808,-2.89481 3.07951,-1.74852 5.55006,-4.45536 7.33104,-7.4816 1.1028,-1.43398 1.74174,-3.23339 2.14393,-5.02598 0.65874,-2.59421 0.87056,-5.35833 0.3166,-7.97806 -0.082,-1.5387 -0.84739,-3.57056 -1.43678,-4.80507 -0.37825,-0.70757 -0.81765,-2.05419 -1.43902,-2.77193 -0.39441,-0.81706 -0.88451,-1.26397 -1.34217,-2.01589 -0.73858,-0.7747 -0.63513,-0.84885 -1.35067,-1.46505 -0.82318,-0.99849 -2.14788,-1.91483 -3.03693,-2.56784 -0.98023,-0.62199 -1.8376,-1.25082 -2.98475,-1.69046 -0.69145,-0.51447 -2.78693,-1.06175 -3.94945,-1.36903 -1.6964,-0.35561 -3.4162,-0.58947 -5.17332,-0.52148 -1.8548,-0.0607 -3.28234,0.30509 -5.01023,0.68588 -1.43737,0.47045 -2.41028,0.76516 -3.75245,1.44774 -0.9679,0.49224 -1.30446,0.72985 -1.71151,0.98078 -0.99983,0.73859 -2.19955,1.6528 -2.97193,2.31373 -0.55847,0.70895 -1.76724,2.19218 -2.11486,2.72933 -0.60754,1.20351 -1.78585,1.99422 -1.55609,3.28877 0.23255,1.96344 -1.73015,3.17582 -1.65561,4.9984 0.59963,1.87631 -1.34086,4.07104 0.5886,5.35118 1.12681,1.76605 -0.85964,3.81869 0.59325,5.49313 0.67685,1.12239 1.01065,2.11522 1.68187,2.95433 0.56051,1.17688 1.45372,2.63706 2.58707,3.66212 1.24504,1.27524 2.71584,2.49975 4.15217,3.47364 1.78458,0.92183 3.40382,2.3365 5.55629,2.44384 1.54748,0.16768 3.01078,0.69515 4.55415,0.76433 z"
         id="path3196-6-2-6" />
    </g>
  </g>
</svg>
